# xmcd CD database file
#
# Track frame offsets:
#	150
#	13597
#	27221
#	45475
#	55550
#	73090
#	87724
#	101705
#	118459
#	134212
#	154815
#	169241
#	187005
#	210120
#	223250
#
# Disc length: 3495 seconds
#
# Revision: 2
# Processed by: cddbd v1.4PL0 Copyright (c) Steve Scherf et al.
# Submitted via: CDex 1.40Release
#
DISCID=e10da50f
DTITLE=Henri Salvador - Les indispensables
DYEAR=2001
DGENRE=
TTITLE0=Le loup, la biche et le chevalier
TTITLE1=Envie de toi
TTITLE2=Layla
TTITLE3=Maladie d'amour
TTITLE4=Le blues du dentiste
TTITLE5=J'ai du faitre le con quelque part
TTITLE6=Vas-y mollo
TTITLE7=Syracuse
TTITLE8=Count Basie
TTITLE9=Yes or No
TTITLE10=Qu'est-ce que j'aime
TTITLE11=Qu'ça saute
TTITLE12=La main au cul
TTITLE13=C'est pas la joie
TTITLE14=Medley
EXTD=YEAR: 2001
EXTT0=
EXTT1=
EXTT2=
EXTT3=
EXTT4=
EXTT5=
EXTT6=
EXTT7=
EXTT8=
EXTT9=
EXTT10=
EXTT11=
EXTT12=
EXTT13=
EXTT14=
PLAYORDER=
